<mxfile host="app.diagrams.net" modified="2022-07-18T09:44:05.118Z" agent="5.0 (Windows NT 10.0; Win64; x64) AppleWebKit/537.36 (KHTML, like Gecko) Chrome/103.0.0.0 Safari/537.36" etag="ZRv_tnHrg8gzyRdPBE36" version="18.2.0" type="github">
  <diagram id="hltTAseODV4_eOF8-N7n" name="Page-1">
    <mxGraphModel dx="1150" dy="1880" grid="1" gridSize="10" guides="1" tooltips="1" connect="1" arrows="1" fold="1" page="1" pageScale="1" pageWidth="827" pageHeight="1169" math="0" shadow="0">
      <root>
        <mxCell id="0" />
        <mxCell id="1" parent="0" />
        <mxCell id="LZQfbHn2JGUL6qf2xwz2-1" value="" style="rounded=1;whiteSpace=wrap;html=1;fontSize=17;fontStyle=1" vertex="1" parent="1">
          <mxGeometry x="240" y="320" width="80" height="80" as="geometry" />
        </mxCell>
        <mxCell id="LZQfbHn2JGUL6qf2xwz2-2" value="&lt;h1 style=&quot;font-size: 32px;&quot;&gt;&lt;span style=&quot;font-size: 32px;&quot;&gt;&lt;font style=&quot;font-size: 32px;&quot;&gt;VR 1&lt;/font&gt;&lt;/span&gt;&lt;/h1&gt;" style="text;html=1;strokeColor=none;fillColor=none;align=center;verticalAlign=middle;whiteSpace=wrap;rounded=0;fontSize=32;fontStyle=0" vertex="1" parent="1">
          <mxGeometry x="160" y="320" width="80" height="80" as="geometry" />
        </mxCell>
        <mxCell id="LZQfbHn2JGUL6qf2xwz2-3" value="&lt;h1 style=&quot;font-size: 32px;&quot;&gt;&lt;span style=&quot;font-size: 32px;&quot;&gt;&lt;font style=&quot;font-size: 32px;&quot;&gt;VR 2&lt;/font&gt;&lt;/span&gt;&lt;/h1&gt;" style="text;html=1;strokeColor=none;fillColor=none;align=center;verticalAlign=middle;whiteSpace=wrap;rounded=0;fontSize=32;fontStyle=0" vertex="1" parent="1">
          <mxGeometry x="160" y="400" width="80" height="80" as="geometry" />
        </mxCell>
        <mxCell id="LZQfbHn2JGUL6qf2xwz2-4" value="&lt;h1 style=&quot;font-size: 32px;&quot;&gt;&lt;span style=&quot;font-size: 32px;&quot;&gt;&lt;font style=&quot;font-size: 32px;&quot;&gt;MR 1&lt;/font&gt;&lt;/span&gt;&lt;/h1&gt;" style="text;html=1;strokeColor=none;fillColor=none;align=center;verticalAlign=middle;whiteSpace=wrap;rounded=0;fontSize=32;fontStyle=0" vertex="1" parent="1">
          <mxGeometry x="160" y="480" width="80" height="80" as="geometry" />
        </mxCell>
        <mxCell id="LZQfbHn2JGUL6qf2xwz2-5" value="&lt;h1 style=&quot;font-size: 32px;&quot;&gt;&lt;span style=&quot;font-size: 32px;&quot;&gt;&lt;font style=&quot;font-size: 32px;&quot;&gt;MR 2&lt;/font&gt;&lt;/span&gt;&lt;/h1&gt;" style="text;html=1;strokeColor=none;fillColor=none;align=center;verticalAlign=middle;whiteSpace=wrap;rounded=0;fontSize=32;fontStyle=0" vertex="1" parent="1">
          <mxGeometry x="160" y="560" width="80" height="80" as="geometry" />
        </mxCell>
        <mxCell id="LZQfbHn2JGUL6qf2xwz2-6" value="&lt;div style=&quot;font-size: 18px;&quot;&gt;Vad är din åldersgrupp?&lt;/div&gt;&lt;div style=&quot;font-size: 18px;&quot;&gt;&lt;br style=&quot;font-size: 18px;&quot;&gt;&lt;/div&gt;" style="text;html=1;strokeColor=none;fillColor=none;align=right;verticalAlign=middle;whiteSpace=wrap;rounded=0;fontSize=18;rotation=90;horizontal=1;spacing=0;spacingRight=10;spacingBottom=-18;" vertex="1" parent="1">
          <mxGeometry x="129" y="128" width="300" height="80" as="geometry" />
        </mxCell>
        <mxCell id="LZQfbHn2JGUL6qf2xwz2-7" value="" style="rounded=1;whiteSpace=wrap;html=1;fontSize=17;fontStyle=1" vertex="1" parent="1">
          <mxGeometry x="240" y="400" width="80" height="80" as="geometry" />
        </mxCell>
        <mxCell id="LZQfbHn2JGUL6qf2xwz2-8" value="" style="rounded=1;whiteSpace=wrap;html=1;fontSize=17;fontStyle=1" vertex="1" parent="1">
          <mxGeometry x="240" y="480" width="80" height="80" as="geometry" />
        </mxCell>
        <mxCell id="LZQfbHn2JGUL6qf2xwz2-9" value="" style="rounded=1;whiteSpace=wrap;html=1;fontSize=17;fontStyle=1" vertex="1" parent="1">
          <mxGeometry x="240" y="560" width="80" height="80" as="geometry" />
        </mxCell>
        <mxCell id="LZQfbHn2JGUL6qf2xwz2-16" value="" style="rounded=1;whiteSpace=wrap;html=1;fontSize=17;fontStyle=1" vertex="1" parent="1">
          <mxGeometry x="320" y="320" width="80" height="80" as="geometry" />
        </mxCell>
        <mxCell id="LZQfbHn2JGUL6qf2xwz2-18" value="" style="rounded=1;whiteSpace=wrap;html=1;fontSize=17;fontStyle=1" vertex="1" parent="1">
          <mxGeometry x="320" y="400" width="80" height="80" as="geometry" />
        </mxCell>
        <mxCell id="LZQfbHn2JGUL6qf2xwz2-19" value="" style="rounded=1;whiteSpace=wrap;html=1;fontSize=17;fontStyle=1" vertex="1" parent="1">
          <mxGeometry x="320" y="480" width="80" height="80" as="geometry" />
        </mxCell>
        <mxCell id="LZQfbHn2JGUL6qf2xwz2-20" value="" style="rounded=1;whiteSpace=wrap;html=1;fontSize=17;fontStyle=1" vertex="1" parent="1">
          <mxGeometry x="320" y="560" width="80" height="80" as="geometry" />
        </mxCell>
        <mxCell id="LZQfbHn2JGUL6qf2xwz2-21" value="" style="rounded=1;whiteSpace=wrap;html=1;fontSize=17;fontStyle=1" vertex="1" parent="1">
          <mxGeometry x="400" y="320" width="80" height="80" as="geometry" />
        </mxCell>
        <mxCell id="LZQfbHn2JGUL6qf2xwz2-23" value="" style="rounded=1;whiteSpace=wrap;html=1;fontSize=17;fontStyle=1" vertex="1" parent="1">
          <mxGeometry x="400" y="400" width="80" height="80" as="geometry" />
        </mxCell>
        <mxCell id="LZQfbHn2JGUL6qf2xwz2-24" value="" style="rounded=1;whiteSpace=wrap;html=1;fontSize=17;fontStyle=1" vertex="1" parent="1">
          <mxGeometry x="400" y="480" width="80" height="80" as="geometry" />
        </mxCell>
        <mxCell id="LZQfbHn2JGUL6qf2xwz2-25" value="" style="rounded=1;whiteSpace=wrap;html=1;fontSize=17;fontStyle=1" vertex="1" parent="1">
          <mxGeometry x="400" y="560" width="80" height="80" as="geometry" />
        </mxCell>
        <mxCell id="LZQfbHn2JGUL6qf2xwz2-26" value="" style="rounded=1;whiteSpace=wrap;html=1;fontSize=17;fontStyle=1" vertex="1" parent="1">
          <mxGeometry x="480" y="320" width="80" height="80" as="geometry" />
        </mxCell>
        <mxCell id="LZQfbHn2JGUL6qf2xwz2-28" value="" style="rounded=1;whiteSpace=wrap;html=1;fontSize=17;fontStyle=1" vertex="1" parent="1">
          <mxGeometry x="480" y="400" width="80" height="80" as="geometry" />
        </mxCell>
        <mxCell id="LZQfbHn2JGUL6qf2xwz2-29" value="" style="rounded=1;whiteSpace=wrap;html=1;fontSize=17;fontStyle=1" vertex="1" parent="1">
          <mxGeometry x="480" y="480" width="80" height="80" as="geometry" />
        </mxCell>
        <mxCell id="LZQfbHn2JGUL6qf2xwz2-30" value="" style="rounded=1;whiteSpace=wrap;html=1;fontSize=17;fontStyle=1" vertex="1" parent="1">
          <mxGeometry x="480" y="560" width="80" height="80" as="geometry" />
        </mxCell>
        <mxCell id="LZQfbHn2JGUL6qf2xwz2-31" value="&lt;div style=&quot;font-size: 18px;&quot;&gt;&lt;div&gt;Vilket kön identifierar du dig med?&lt;/div&gt;&lt;div&gt;&lt;br&gt;&lt;/div&gt;&lt;/div&gt;" style="text;html=1;strokeColor=none;fillColor=none;align=right;verticalAlign=middle;whiteSpace=wrap;rounded=0;fontSize=18;rotation=90;horizontal=1;spacing=0;spacingRight=10;spacingBottom=-18;" vertex="1" parent="1">
          <mxGeometry x="210" y="128" width="300" height="80" as="geometry" />
        </mxCell>
        <mxCell id="LZQfbHn2JGUL6qf2xwz2-32" value="Använder du något av följande just nu?" style="text;html=1;strokeColor=none;fillColor=none;align=right;verticalAlign=middle;whiteSpace=wrap;rounded=0;fontSize=18;rotation=90;horizontal=1;spacing=0;spacingRight=10;spacingBottom=-18;" vertex="1" parent="1">
          <mxGeometry x="290" y="128" width="300" height="80" as="geometry" />
        </mxCell>
        <mxCell id="LZQfbHn2JGUL6qf2xwz2-33" value="&lt;div style=&quot;font-size: 18px;&quot;&gt;Har du upplevt någon form av VR?&lt;/div&gt;" style="text;html=1;strokeColor=none;fillColor=none;align=right;verticalAlign=middle;whiteSpace=wrap;rounded=0;fontSize=18;rotation=90;horizontal=1;spacing=0;spacingRight=10;spacingBottom=-18;" vertex="1" parent="1">
          <mxGeometry x="370" y="128" width="300" height="80" as="geometry" />
        </mxCell>
        <mxCell id="LZQfbHn2JGUL6qf2xwz2-34" value="" style="rounded=1;whiteSpace=wrap;html=1;fontSize=17;fontStyle=1" vertex="1" parent="1">
          <mxGeometry x="561" y="320" width="80" height="80" as="geometry" />
        </mxCell>
        <mxCell id="LZQfbHn2JGUL6qf2xwz2-35" value="&lt;div style=&quot;font-size: 18px;&quot;&gt;Har du upplevt något form av MR?&lt;/div&gt;" style="text;html=1;strokeColor=none;fillColor=none;align=right;verticalAlign=middle;whiteSpace=wrap;rounded=0;fontSize=18;rotation=90;horizontal=1;spacing=0;spacingRight=10;spacingBottom=-18;" vertex="1" parent="1">
          <mxGeometry x="450" y="128" width="300" height="80" as="geometry" />
        </mxCell>
        <mxCell id="LZQfbHn2JGUL6qf2xwz2-36" value="" style="rounded=1;whiteSpace=wrap;html=1;fontSize=17;fontStyle=1" vertex="1" parent="1">
          <mxGeometry x="561" y="400" width="80" height="80" as="geometry" />
        </mxCell>
        <mxCell id="LZQfbHn2JGUL6qf2xwz2-37" value="" style="rounded=1;whiteSpace=wrap;html=1;fontSize=17;fontStyle=1" vertex="1" parent="1">
          <mxGeometry x="561" y="480" width="80" height="80" as="geometry" />
        </mxCell>
        <mxCell id="LZQfbHn2JGUL6qf2xwz2-38" value="" style="rounded=1;whiteSpace=wrap;html=1;fontSize=17;fontStyle=1" vertex="1" parent="1">
          <mxGeometry x="561" y="560" width="80" height="80" as="geometry" />
        </mxCell>
        <mxCell id="LZQfbHn2JGUL6qf2xwz2-39" value="" style="rounded=1;whiteSpace=wrap;html=1;fontSize=17;fontStyle=1" vertex="1" parent="1">
          <mxGeometry x="641" y="320" width="80" height="80" as="geometry" />
        </mxCell>
        <mxCell id="LZQfbHn2JGUL6qf2xwz2-40" value="" style="rounded=1;whiteSpace=wrap;html=1;fontSize=17;fontStyle=1" vertex="1" parent="1">
          <mxGeometry x="641" y="400" width="80" height="80" as="geometry" />
        </mxCell>
        <mxCell id="LZQfbHn2JGUL6qf2xwz2-41" value="" style="rounded=1;whiteSpace=wrap;html=1;fontSize=17;fontStyle=1" vertex="1" parent="1">
          <mxGeometry x="641" y="480" width="80" height="80" as="geometry" />
        </mxCell>
        <mxCell id="LZQfbHn2JGUL6qf2xwz2-42" value="" style="rounded=1;whiteSpace=wrap;html=1;fontSize=17;fontStyle=1" vertex="1" parent="1">
          <mxGeometry x="641" y="560" width="80" height="80" as="geometry" />
        </mxCell>
        <mxCell id="LZQfbHn2JGUL6qf2xwz2-43" value="" style="rounded=1;whiteSpace=wrap;html=1;fontSize=17;fontStyle=1" vertex="1" parent="1">
          <mxGeometry x="721" y="320" width="80" height="80" as="geometry" />
        </mxCell>
        <mxCell id="LZQfbHn2JGUL6qf2xwz2-44" value="" style="rounded=1;whiteSpace=wrap;html=1;fontSize=17;fontStyle=1" vertex="1" parent="1">
          <mxGeometry x="721" y="400" width="80" height="80" as="geometry" />
        </mxCell>
        <mxCell id="LZQfbHn2JGUL6qf2xwz2-45" value="" style="rounded=1;whiteSpace=wrap;html=1;fontSize=17;fontStyle=1" vertex="1" parent="1">
          <mxGeometry x="721" y="480" width="80" height="80" as="geometry" />
        </mxCell>
        <mxCell id="LZQfbHn2JGUL6qf2xwz2-46" value="" style="rounded=1;whiteSpace=wrap;html=1;fontSize=17;fontStyle=1" vertex="1" parent="1">
          <mxGeometry x="721" y="560" width="80" height="80" as="geometry" />
        </mxCell>
        <mxCell id="LZQfbHn2JGUL6qf2xwz2-47" value="" style="rounded=1;whiteSpace=wrap;html=1;fontSize=17;fontStyle=1" vertex="1" parent="1">
          <mxGeometry x="801" y="320" width="80" height="80" as="geometry" />
        </mxCell>
        <mxCell id="LZQfbHn2JGUL6qf2xwz2-48" value="" style="rounded=1;whiteSpace=wrap;html=1;fontSize=17;fontStyle=1" vertex="1" parent="1">
          <mxGeometry x="801" y="400" width="80" height="80" as="geometry" />
        </mxCell>
        <mxCell id="LZQfbHn2JGUL6qf2xwz2-49" value="" style="rounded=1;whiteSpace=wrap;html=1;fontSize=17;fontStyle=1" vertex="1" parent="1">
          <mxGeometry x="801" y="480" width="80" height="80" as="geometry" />
        </mxCell>
        <mxCell id="LZQfbHn2JGUL6qf2xwz2-50" value="" style="rounded=1;whiteSpace=wrap;html=1;fontSize=17;fontStyle=1" vertex="1" parent="1">
          <mxGeometry x="801" y="560" width="80" height="80" as="geometry" />
        </mxCell>
        <mxCell id="LZQfbHn2JGUL6qf2xwz2-51" value="&lt;div style=&quot;font-size: 18px;&quot;&gt;Har du suttit i en CAVE/Dome miljö?&lt;/div&gt;" style="text;html=1;strokeColor=none;fillColor=none;align=right;verticalAlign=middle;whiteSpace=wrap;rounded=0;fontSize=18;rotation=90;horizontal=1;spacing=0;spacingRight=10;spacingBottom=-18;" vertex="1" parent="1">
          <mxGeometry x="531" y="128" width="300" height="80" as="geometry" />
        </mxCell>
        <mxCell id="LZQfbHn2JGUL6qf2xwz2-52" value="&lt;div style=&quot;font-size: 18px;&quot;&gt;Vad är din åldersgrupp?&lt;/div&gt;&lt;div style=&quot;font-size: 18px;&quot;&gt;&lt;br style=&quot;font-size: 18px;&quot;&gt;&lt;/div&gt;" style="text;html=1;strokeColor=none;fillColor=none;align=right;verticalAlign=middle;whiteSpace=wrap;rounded=0;fontSize=18;rotation=90;horizontal=1;spacing=0;spacingRight=10;spacingBottom=-18;" vertex="1" parent="1">
          <mxGeometry x="611" y="128" width="300" height="80" as="geometry" />
        </mxCell>
        <mxCell id="LZQfbHn2JGUL6qf2xwz2-53" value="&lt;div style=&quot;font-size: 18px;&quot;&gt;Vad är din åldersgrupp?&lt;/div&gt;&lt;div style=&quot;font-size: 18px;&quot;&gt;&lt;br style=&quot;font-size: 18px;&quot;&gt;&lt;/div&gt;" style="text;html=1;strokeColor=none;fillColor=none;align=right;verticalAlign=middle;whiteSpace=wrap;rounded=0;fontSize=18;rotation=90;horizontal=1;spacing=0;spacingRight=10;spacingBottom=-18;" vertex="1" parent="1">
          <mxGeometry x="691" y="128" width="300" height="80" as="geometry" />
        </mxCell>
      </root>
    </mxGraphModel>
  </diagram>
</mxfile>
